<svg id="interview" xmlns="http://www.w3.org/2000/svg" width="90.617" height="90.617" viewBox="0 0 90.617 90.617">
  <g id="Group_33" data-name="Group 33" transform="translate(0 15.103)">
    <g id="Group_32" data-name="Group 32">
      <path id="Path_1" data-name="Path 1" d="M85.836,101.686a12.082,12.082,0,1,0-15.266-.542H62.547L52.418,91.015a1.509,1.509,0,0,0-2.136,0l-6.041,6.041a1.509,1.509,0,0,0,0,2.136l13.593,13.593a1.5,1.5,0,0,0,1.068.443H70.983V123.8H45.109l7.5-11.244-2.513-1.675L41.48,123.8H37.757v-7.551a1.509,1.509,0,0,0-1.51-1.51H24.165V108.7a7.552,7.552,0,0,0-4.782-7.009,12.082,12.082,0,1,0-14.6,0A7.552,7.552,0,0,0,0,108.7v21.144a7.56,7.56,0,0,0,7.551,7.551v18.123h3.021V137.391H21.144V154a1.509,1.509,0,0,0,1.51,1.51H33.226a1.509,1.509,0,0,0,1.51-1.51V131.35a7.511,7.511,0,0,0-1.513-4.531H43.8v25.675H37.757v3.021h15.1v-3.021H46.819V126.819H57.43a7.473,7.473,0,0,0-1.55,4.531V154a1.509,1.509,0,0,0,1.51,1.51H67.963a1.509,1.509,0,0,0,1.51-1.51V137.391H80.045v18.123h3.021V137.391a7.56,7.56,0,0,0,7.551-7.551V108.7A7.552,7.552,0,0,0,85.836,101.686Zm-82.815-9.6a9.062,9.062,0,1,1,9.062,9.062A9.071,9.071,0,0,1,3.021,92.082ZM34.737,123.8H15.1V111.716H12.082v13.593a1.509,1.509,0,0,0,1.51,1.51H27.185a4.536,4.536,0,0,1,4.531,4.531v21.144H24.165V135.881a1.509,1.509,0,0,0-1.51-1.51H7.551a4.536,4.536,0,0,1-4.531-4.531V108.7a4.536,4.536,0,0,1,4.531-4.531h9.062a4.536,4.536,0,0,1,4.531,4.531v7.551a1.509,1.509,0,0,0,1.51,1.51H34.737ZM69.473,92.082a9.062,9.062,0,1,1,9.062,9.062A9.071,9.071,0,0,1,69.473,92.082ZM87.6,129.839a4.536,4.536,0,0,1-4.531,4.531h-15.1a1.509,1.509,0,0,0-1.51,1.51v16.613H58.9V131.35a4.536,4.536,0,0,1,4.531-4.531h9.062a1.509,1.509,0,0,0,1.51-1.51V111.716a1.509,1.509,0,0,0-1.51-1.51H59.526L47.444,98.123l3.906-3.906,9.5,9.5a1.5,1.5,0,0,0,1.068.443H83.066A4.536,4.536,0,0,1,87.6,108.7Z" transform="translate(0 -80)" fill="#dbb442"/>
    </g>
  </g>
  <g id="Group_35" data-name="Group 35" transform="translate(25.675)">
    <g id="Group_34" data-name="Group 34">
      <path id="Path_2" data-name="Path 2" d="M170.737,0H140.531A4.536,4.536,0,0,0,136,4.531V16.613a4.536,4.536,0,0,0,4.531,4.531h1.51v9.062a1.509,1.509,0,0,0,.932,1.4,1.491,1.491,0,0,0,.578.115,1.511,1.511,0,0,0,1.068-.443l10.129-10.129h15.988a4.536,4.536,0,0,0,4.531-4.531V4.531A4.536,4.536,0,0,0,170.737,0Zm1.51,16.613a1.511,1.511,0,0,1-1.51,1.51H154.123a1.5,1.5,0,0,0-1.068.443l-7.994,7.994V19.634a1.509,1.509,0,0,0-1.51-1.51h-3.021a1.511,1.511,0,0,1-1.51-1.51V4.531a1.511,1.511,0,0,1,1.51-1.51h30.206a1.511,1.511,0,0,1,1.51,1.51Z" transform="translate(-136)" fill="#dbb442"/>
    </g>
  </g>
  <g id="Group_37" data-name="Group 37" transform="translate(32.103 5.901)">
    <g id="Group_36" data-name="Group 36" transform="translate(0 0)">
      <rect id="Rectangle_42" data-name="Rectangle 42" width="9" height="4" transform="translate(-0.103 -0.284)" fill="#dbb442"/>
    </g>
  </g>
  <g id="Group_39" data-name="Group 39" transform="translate(32.103 12.143)">
    <g id="Group_38" data-name="Group 38" transform="translate(0 0)">
      <rect id="Rectangle_43" data-name="Rectangle 43" width="27" height="2" transform="translate(-0.103 0.474)" fill="#dbb442"/>
    </g>
  </g>
  <g id="Group_41" data-name="Group 41" transform="translate(43.696 5.901)">
    <g id="Group_40" data-name="Group 40" transform="translate(0 0)">
      <rect id="Rectangle_44" data-name="Rectangle 44" width="15" height="4" transform="translate(0.304 -0.284)" fill="#dbb442"/>
    </g>
  </g>
</svg>
