<svg xmlns="http://www.w3.org/2000/svg" width="101" height="101" viewBox="0 0 101 101">
  <g id="leasing" transform="translate(-1 -1)">
    <path id="Path_13" data-name="Path 13" d="M36.839,44.984V38.468a11.406,11.406,0,0,0-5.77-9.9,12.563,12.563,0,0,0,8.754-5.485,1.628,1.628,0,0,0-1.355-2.532,4.893,4.893,0,0,1-4.887-4.887V14.032a13.032,13.032,0,1,0-26.065,0v1.629a4.893,4.893,0,0,1-4.887,4.887A1.628,1.628,0,0,0,1.274,23.08a12.574,12.574,0,0,0,8.754,5.485,11.406,11.406,0,0,0-5.77,9.9v6.516a1.629,1.629,0,0,0,1.629,1.629H35.21A1.629,1.629,0,0,0,36.839,44.984ZM27.065,20.548a6.516,6.516,0,0,1-13.032,0V17.29a8.14,8.14,0,0,0,6.516-3.263,8.14,8.14,0,0,0,6.516,3.263Zm-11.4,9.774h9.774L23.629,32.73,21.7,30.8a1.626,1.626,0,0,0-2.3,0l-1.93,1.93ZM10.774,15.661V14.032a9.774,9.774,0,0,1,19.548,0v1.629A8.157,8.157,0,0,0,35.4,23.205a9.324,9.324,0,0,1-6.06,2.23H29a9.721,9.721,0,0,0,1.321-4.887V15.661a1.629,1.629,0,0,0-1.629-1.629H27.065a4.893,4.893,0,0,1-4.887-4.887,1.629,1.629,0,0,0-3.258,0,4.893,4.893,0,0,1-4.887,4.887H12.4a1.629,1.629,0,0,0-1.629,1.629v4.887A9.706,9.706,0,0,0,12.1,25.435H11.76A9.329,9.329,0,0,1,5.7,23.205a8.156,8.156,0,0,0,5.076-7.544ZM33.581,43.355H30.323V36.839H27.065v6.516H14.032V36.839H10.774v6.516H7.516V38.468a8.134,8.134,0,0,1,4.677-7.34l3.794,5.06a1.625,1.625,0,0,0,1.188.647,1.6,1.6,0,0,0,1.267-.472l2.106-2.106,2.106,2.106a1.624,1.624,0,0,0,1.152.477c.037,0,.077,0,.116,0a1.63,1.63,0,0,0,1.188-.647l3.794-5.06a8.134,8.134,0,0,1,4.677,7.34Z" transform="translate(0 0)" fill="#dbb442"/>
    <path id="Path_14" data-name="Path 14" d="M74.538,66.312a9.778,9.778,0,0,0,2.134-3.473h2.2A4.875,4.875,0,0,0,80.5,53.364V48.177a8.154,8.154,0,0,0-8.145-8.145H69.1v-11.4A1.629,1.629,0,0,0,67.468,27H47.919a1.625,1.625,0,0,0-1.152.477l-16.29,16.29A1.622,1.622,0,0,0,30,44.919V70.984a1.629,1.629,0,0,0,1.629,1.629H52.293A11.331,11.331,0,0,0,51.177,77.5v6.516a1.629,1.629,0,0,0,1.629,1.629H82.129a1.629,1.629,0,0,0,1.629-1.629V77.5A11.419,11.419,0,0,0,74.538,66.312ZM57.694,59.581H56.065a1.629,1.629,0,1,1,0-3.258h1.629Zm3.258-4.892a8.191,8.191,0,0,0,2.041-2.233,15.237,15.237,0,0,0,9.362,3.867h1.629v3.258a6.516,6.516,0,0,1-13.032,0Zm1.629,14.666h9.774l-1.807,2.408-1.93-1.93a1.626,1.626,0,0,0-2.3,0l-1.93,1.93Zm16.29-9.774H77.242V56.323h1.629a1.629,1.629,0,0,1,0,3.258Zm-1.629-11.4v4.887H72.355c-3.216,0-8.145-2.621-8.145-4.887a1.629,1.629,0,1,0-3.258,0,4.9,4.9,0,0,1-3.258,4.609V48.177a4.893,4.893,0,0,1,4.887-4.887h9.774A4.893,4.893,0,0,1,77.242,48.177ZM46.29,32.562V43.29H35.562ZM33.258,46.548H47.919a1.629,1.629,0,0,0,1.629-1.629V30.258h16.29v9.774H62.581a8.154,8.154,0,0,0-8.145,8.145v5.187a4.875,4.875,0,0,0,1.629,9.474h2.2A9.778,9.778,0,0,0,60.4,66.312a11.387,11.387,0,0,0-5.783,3.043H33.258ZM80.5,82.387H77.242V75.871H73.984v6.516H60.952V75.871H57.694v6.516H54.435V77.5a8.134,8.134,0,0,1,4.677-7.34l3.794,5.06a1.63,1.63,0,0,0,2.455.174l2.106-2.106,2.106,2.106a1.624,1.624,0,0,0,1.152.477c.037,0,.077,0,.116,0a1.63,1.63,0,0,0,1.188-.647l3.794-5.06A8.134,8.134,0,0,1,80.5,77.5Z" transform="translate(18.242 16.355)" fill="#dbb442"/>
    <path id="Path_15" data-name="Path 15" d="M33,40h3.258v3.258H33Z" transform="translate(20.129 24.532)" fill="#dbb442"/>
    <path id="Path_16" data-name="Path 16" d="M36,40h9.774v3.258H36Z" transform="translate(22.016 24.532)" fill="#dbb442"/>
    <path id="Path_17" data-name="Path 17" d="M33,43h3.258v3.258H33Z" transform="translate(20.129 26.419)" fill="#dbb442"/>
    <path id="Path_18" data-name="Path 18" d="M36,43h9.774v3.258H36Z" transform="translate(22.016 26.419)" fill="#dbb442"/>
    <path id="Path_19" data-name="Path 19" d="M33,46h3.258v3.258H33Z" transform="translate(20.129 28.306)" fill="#dbb442"/>
    <path id="Path_20" data-name="Path 20" d="M36,46h9.774v3.258H36Z" transform="translate(22.016 28.306)" fill="#dbb442"/>
    <path id="Path_21" data-name="Path 21" d="M36.4,41.726a1.625,1.625,0,0,0,1.152-.477l3.258-3.258a1.622,1.622,0,0,0,.477-1.152V22.7a11.4,11.4,0,1,0-9.774,0v4.367a1.622,1.622,0,0,0,.477,1.152l.477.477-.477.477a1.627,1.627,0,0,0,0,2.3l.477.477-.477.477a1.622,1.622,0,0,0-.477,1.152v3.258a1.622,1.622,0,0,0,.477,1.152l3.258,3.258a1.625,1.625,0,0,0,1.152.477ZM35.926,30.8l-.477-.477.477-.477a1.627,1.627,0,0,0,0-2.3L34.774,26.39V21.609a1.625,1.625,0,0,0-1.087-1.535,8.145,8.145,0,1,1,5.431,0,1.628,1.628,0,0,0-1.087,1.535V36.164L36.4,37.793l-1.629-1.629V34.255L35.926,33.1A1.627,1.627,0,0,0,35.926,30.8Z" transform="translate(15.097 0)" fill="#dbb442"/>
    <path id="Path_22" data-name="Path 22" d="M31,4h3.258V7.258H31Z" transform="translate(18.871 1.887)" fill="#dbb442"/>
    <path id="Path_23" data-name="Path 23" d="M16.59,35.562,20.325,39.3l2.3-2.3-6.516-6.516a1.627,1.627,0,0,0-2.3,0L7.293,36.994l2.3,2.3,3.735-3.735V65.839a1.629,1.629,0,0,0,1.629,1.629H41.025V64.21H16.59Z" transform="translate(3.959 18.242)" fill="#dbb442"/>
    <path id="Path_24" data-name="Path 24" d="M57.29,29.874l-3.735-3.735-2.3,2.3,6.516,6.516a1.628,1.628,0,0,0,2.3,0l6.516-6.516-2.3-2.3-3.735,3.735V12.629A1.629,1.629,0,0,0,58.919,11H41v3.258H57.29Z" transform="translate(25.161 6.29)" fill="#dbb442"/>
  </g>
</svg>
